<svg id="Layer_1" data-name="Layer 1" xmlns="http://www.w3.org/2000/svg" viewBox="0 0 445.08 212.95"><title>logo-tk</title><path d="M642.16,230.28q108.91,0,217.82-.1c4,0,4.69,1.16,4.68,4.81q-.15,101.41-.08,202.82c0,5.3,0,5.31-5.32,5.31H424.75c-5.15,0-5.16,0-5.16-5.09q0-101.41,0-202.82c0-4.93,0-4.93,5.13-4.93Zm.06,4.27H430.35c-6,0-6.05,0-6.05,6.21q0,96.18,0,192.36c0,5.33,0,5.33,5.4,5.33H854.55c5.3,0,5.31,0,5.31-5.42q0-96.37,0-192.74c0-5.74,0-5.75-5.78-5.75Z" transform="translate(-419.58 -230.18)"/><path d="M595.37,284.5c0-7.75.09-15.5-.05-23.24-.06-3.09,1.05-4.22,4.16-4.11,5.24.19,10.5.11,15.74,0,2.12,0,3.1.75,3.51,2.91,2.16,11.53,9.09,18.26,20.73,20,1.94.29,2.45,1.23,2.44,3-.05,5.62-.08,11.25,0,16.87,0,2.54-1.15,3.23-3.48,3.07a42.55,42.55,0,0,1-16.55-4.33c-3-1.55-3.42-.56-3.49,2.41-.39,16.2,12.44,25.57,24.4,25,10.79-.5,20.22-8.4,21.85-19.1.47-3.06,1.81-4,4.69-3.86,4.87.16,9.75,0,14.62,0,4.35,0,4.77.34,4.23,4.82-2.13,17.48-11.59,30-27.38,37.07-26.91,12-57.39-3.25-64.46-31.78a44.23,44.23,0,0,1-.92-10.44C595.35,296.75,595.38,290.62,595.37,284.5Z" transform="translate(-419.58 -230.18)"/><path d="M513.89,412.5c-9.17-.27-16.68-2.55-20.78-10.67-5.14-10.18-.65-21.73,10-26a26.5,26.5,0,0,1,22.5,1c7.25,3.67,10.42,10.91,9.16,20-1,7.29-7,13.31-14.92,14.88C517.66,412.19,515.41,412.32,513.89,412.5Zm-.58-31.79c-7.71,0-13.3,4.09-14.25,10.53-1,6.79,2.81,12.25,9.89,14.16,10,2.68,18.79-3.64,18.33-13.14C526.95,385.35,521.38,380.75,513.31,380.71Z" transform="translate(-419.58 -230.18)"/><path d="M613.94,412.49c-9.11-.25-16.63-2.49-20.78-10.57-5.19-10.09-.71-21.76,9.88-26a26.54,26.54,0,0,1,22.5.94c7.35,3.66,10.53,11,9.2,20.31-1,7.15-7.21,13.18-15.14,14.66C617.52,412.19,615.39,412.32,613.94,412.49Zm-.63-31.8c-5.59,0-10.4,1.71-13.07,7a12.23,12.23,0,0,0,5.19,16.43c7.3,3.76,17.12,1.38,20.54-5C630.76,390.21,624.27,380.76,613.3,380.69Z" transform="translate(-419.58 -230.18)"/><path d="M544.57,393.34q0-7.31,0-14.61c0-2.53.82-4.62,3.71-4.6s3.85,2,3.9,4.54q.09,4.5,0,9c0,2.71,1,3,3.11,1.59,6.26-4.32,12.53-8.65,18.86-12.88,2.44-1.63,5.49-4.2,7.8-.72s-1.41,5.16-3.76,6.84c-3.15,2.24-6.29,4.53-9.6,6.51-2.67,1.6-3,2.76-.4,4.86,4.65,3.77,9.1,7.8,13.55,11.8,1.8,1.62,3.07,3.68.75,5.74-2.06,1.83-4.21.93-6.07-.65-4.85-4.12-9.65-8.3-14.52-12.4-1.23-1-2.32-3.14-4.37-1.66-2.21,1.59-5.49,2.32-5.35,6.06a48,48,0,0,1-.07,5.62c-.19,2.4-1.37,4-4,4s-3.47-1.75-3.5-4c-.06-5,0-10,0-15Z" transform="translate(-419.58 -230.18)"/><path d="M671.46,393c0-4.5,0-9,0-13.49,0-2.65.21-5.4,3.65-5.37s4,2.75,4,5.61c0,2.5,0,5,0,7.49,0,1-.33,2.17.69,2.74s1.85-.42,2.63-.95c6.2-4.2,12.34-8.48,18.57-12.63,2.43-1.62,5.47-4.23,7.83-.81s-1.29,5.18-3.67,6.85c-3.36,2.38-6.7,4.8-10.21,6.94-2.45,1.5-2.05,2.56-.16,4.15q6.74,5.66,13.29,11.54c1.76,1.58,3.89,3.48,1.63,6s-4.55,1.24-6.6-.51c-4.76-4-9.45-8.15-14.23-12.17-1.23-1-2.32-3.15-4.37-1.72-2.22,1.56-5.5,2.3-5.41,6,0,1.75,0,3.5,0,5.25-.12,2.53-1.1,4.43-4,4.37s-3.54-1.94-3.55-4.32c0-5,0-10,0-15Z" transform="translate(-419.58 -230.18)"/><path d="M797,408.3c.29-.69.64-1.75,1.16-2.73,4.73-8.93,9.42-17.89,14.27-26.76,3.52-6.43,9.76-6.57,13.33-.22,5.07,9,9.86,18.22,14.78,27.33,1.15,2.14,1.92,4.41-.68,5.87a3.83,3.83,0,0,1-5.82-2.25c-2.06-5.94-6.37-6.79-11.8-6.28a67.49,67.49,0,0,1-10.49,0c-2.94-.19-4.66.95-5.79,3.6a17.2,17.2,0,0,1-2.82,4.37A3.53,3.53,0,0,1,799,412C797.49,411.43,797.1,410.19,797,408.3Zm22.26-11.77c1.12,0,2.25,0,3.37,0,3.67-.08,4-.58,2.21-3.94-1.32-2.54-2.62-5.09-4-7.6-.91-1.63-1.93-2.4-3.06-.08-.81,1.68-1.76,3.3-2.67,4.93C810.66,397.78,812,396.44,819.29,396.53Z" transform="translate(-419.58 -230.18)"/><path d="M731.32,411.93h-8.62c-2.16,0-3.78-.92-4-3.11-.22-2.49,1.6-3.45,3.78-3.77a12,12,0,0,1,2.24-.08c2.29.1,3.06-1.08,3-3.23-.06-5.74-.05-11.49,0-17.23,0-2.18-.89-3.27-3.15-3.12a15.22,15.22,0,0,1-2.62-.11c-2-.22-3.33-1.33-3.29-3.38a3.14,3.14,0,0,1,3.39-3.26c6.37-.05,12.73-.06,19.1,0a3.1,3.1,0,0,1,3.32,3.31c0,2.07-1.37,3-3.33,3.37-5.7,1-5.7,1-5.71,6.74,0,4.25.13,8.5,0,12.74-.12,3,.78,4.58,4,4.2a5.18,5.18,0,0,1,1.49.08c2,.36,3.69,1.3,3.57,3.59s-1.65,3.25-3.82,3.26C737.57,411.95,734.45,411.93,731.32,411.93Z" transform="translate(-419.58 -230.18)"/><path d="M465.19,374.54c5.12,0,10.23,0,15.35,0,2.45,0,4.72.52,4.63,3.56-.08,2.82-2.35,3.21-4.58,3.28a58.52,58.52,0,0,1-7.11,0c-3.52-.32-4.89.89-4.76,4.59.25,7.1.05,14.22.07,21.34,0,1.81-.17,3.55-1.92,4.57-2.62,1.53-5.49-.24-5.55-3.61-.12-7.48-.22-15,0-22.46.1-3.53-1.18-4.68-4.56-4.44a72.94,72.94,0,0,1-8.6-.09c-2-.09-3.33-1.06-3.35-3.24,0-2.36,1.37-3.4,3.55-3.42,5.61-.05,11.23,0,16.84,0Z" transform="translate(-419.58 -230.18)"/><path d="M771.68,374.55H787.4c2.32,0,4.38.52,4.42,3.36s-2,3.44-4.33,3.47c-2.74,0-5.5.17-8.23,0-3-.19-4,1.1-3.91,4,.11,7.24,0,14.48,0,21.71,0,2.63-.17,5.31-3.73,5.25-3.38-.05-3.85-2.58-3.85-5.27,0-7-.15-14,0-21,.1-3.45-.74-5.14-4.57-4.71a51.19,51.19,0,0,1-8.23-.06c-2.1-.11-3.71-1.15-3.63-3.44s1.65-3.26,3.8-3.28c5.49,0,11,0,16.47,0Z" transform="translate(-419.58 -230.18)"/></svg>