<svg xmlns="http://www.w3.org/2000/svg" viewBox="0 0 565.15 565.15"><defs><style>.cls-1{fill:#fff;}</style></defs><title>sm-logo-tk</title><g id="Layer_1" data-name="Layer 1"><rect class="cls-1" x="16.5" y="16.5" width="532.15" height="532.15" rx="16.5" ry="16.5"/><path d="M499.57.43V499.57H.43V.43H499.57m0-33H.43a33,33,0,0,0-33,33V499.57a33,33,0,0,0,33,33H499.57a33,33,0,0,0,33-33V.43a33,33,0,0,0-33-33Z" transform="translate(32.57 32.57)"/></g><g id="Layer_2" data-name="Layer 2"><path d="M87.08,184.64c0-27.17.32-54.35-.18-81.48-.21-10.83,3.68-14.8,14.59-14.41,18.37.67,36.82.39,55.19,0,7.43,0,10.87,2.63,12.31,10.2,7.57,40.43,31.87,64,72.68,70.12,6.8,1,8.59,4.31,8.56,10.52-.18,19.7-.28,39.44,0,59.15,0,8.91-4,11.33-12.2,10.76a149.19,149.19,0,0,1-58-15.18c-10.52-5.43-12-2-12.24,8.45-1.37,56.8,43.62,89.65,85.55,87.66,37.83-1.75,70.9-29.45,76.61-67,1.65-10.73,6.35-14,16.44-13.53,17.08.56,34.19,0,51.26,0,15.25,0,16.72,1.19,14.83,16.9-7.47,61.29-40.64,105.19-96,130-94.35,42.07-201.22-11.4-226-111.43a155.08,155.08,0,0,1-3.23-36.6C87,227.6,87.11,206.1,87.08,184.64Z" transform="translate(32.57 32.57)"/></g></svg>